<?xml version="1.0" standalone="no"?>
<!DOCTYPE svg PUBLIC "-//W3C//DTD SVG 20010904//EN"
 "http://www.w3.org/TR/2001/REC-SVG-20010904/DTD/svg10.dtd">
<svg version="1.0" xmlns="http://www.w3.org/2000/svg"
 width="500.000000pt" height="500.000000pt" viewBox="0 0 500.000000 500.000000"
 preserveAspectRatio="xMidYMid meet">
<metadata>
Created by potrace 1.11, written by Peter Selinger 2001-2013
</metadata>
<g transform="translate(0.000000,500.000000) scale(0.100000,-0.100000)"
fill="#000000" stroke="none">
<path d="M3435 4744 c-270 -35 -472 -105 -708 -243 -43 -25 -85 -51 -95 -56
-30 -18 -75 -48 -162 -110 -79 -55 -104 -74 -134 -100 -6 -5 -38 -32 -71 -60
-33 -27 -61 -53 -63 -57 -2 -5 -16 -8 -31 -8 l-28 0 -67 273 c-36 149 -66 278
-66 285 0 10 -167 12 -817 10 l-818 -3 0 -285 0 -285 588 -3 587 -2 0 -1600 0
-1600 -587 -2 -588 -3 0 -287 0 -288 1760 0 1760 0 -1 277 c-1 153 -2 284 -3
291 -1 9 -175 12 -835 12 l-835 0 1 1282 c0 1275 1 1283 21 1312 42 59 203
219 291 289 138 110 205 153 328 212 215 103 380 144 603 151 187 6 269 -20
361 -111 57 -56 89 -114 123 -216 22 -68 24 -76 41 -169 16 -92 19 -113 25
-180 11 -121 14 -165 15 -277 l2 -113 300 4 c184 3 303 8 307 14 11 19 -4 430
-24 626 -43 433 -159 716 -358 877 -78 63 -185 114 -282 133 -16 4 -41 9 -55
12 -50 12 -386 11 -485 -2z"/>
</g>
</svg>
